<svg width="97" height="131" viewBox="0 0 97 131" fill="none" xmlns="http://www.w3.org/2000/svg">
<path d="M2.64831 115.8H5.24031V124.888H10.8563V127H2.64831V115.8ZM20.4981 122.728C20.4981 122.76 20.4821 122.984 20.4501 123.4H13.9381C14.0554 123.933 14.3327 124.355 14.7701 124.664C15.2074 124.973 15.7514 125.128 16.4021 125.128C16.8501 125.128 17.2447 125.064 17.5861 124.936C17.9381 124.797 18.2634 124.584 18.5621 124.296L19.8901 125.736C19.0794 126.664 17.8954 127.128 16.3381 127.128C15.3674 127.128 14.5087 126.941 13.7621 126.568C13.0154 126.184 12.4394 125.656 12.0341 124.984C11.6287 124.312 11.4261 123.549 11.4261 122.696C11.4261 121.853 11.6234 121.096 12.0181 120.424C12.4234 119.741 12.9727 119.213 13.6661 118.84C14.3701 118.456 15.1541 118.264 16.0181 118.264C16.8607 118.264 17.6234 118.445 18.3061 118.808C18.9887 119.171 19.5221 119.693 19.9061 120.376C20.3007 121.048 20.4981 121.832 20.4981 122.728ZM16.0341 120.152C15.4687 120.152 14.9941 120.312 14.6101 120.632C14.2261 120.952 13.9914 121.389 13.9061 121.944H18.1461C18.0607 121.4 17.8261 120.968 17.4421 120.648C17.0581 120.317 16.5887 120.152 16.0341 120.152ZM25.3974 118.264C26.7308 118.264 27.7548 118.584 28.4694 119.224C29.1841 119.853 29.5414 120.808 29.5414 122.088V127H27.2054V125.928C26.7361 126.728 25.8614 127.128 24.5814 127.128C23.9201 127.128 23.3441 127.016 22.8534 126.792C22.3734 126.568 22.0054 126.259 21.7494 125.864C21.4934 125.469 21.3654 125.021 21.3654 124.52C21.3654 123.72 21.6641 123.091 22.2614 122.632C22.8694 122.173 23.8028 121.944 25.0614 121.944H27.0454C27.0454 121.4 26.8801 120.984 26.5494 120.696C26.2188 120.397 25.7228 120.248 25.0614 120.248C24.6028 120.248 24.1494 120.323 23.7014 120.472C23.2641 120.611 22.8908 120.803 22.5814 121.048L21.6854 119.304C22.1548 118.973 22.7148 118.717 23.3654 118.536C24.0268 118.355 24.7041 118.264 25.3974 118.264ZM25.2054 125.448C25.6321 125.448 26.0108 125.352 26.3414 125.16C26.6721 124.957 26.9068 124.664 27.0454 124.28V123.4H25.3334C24.3094 123.4 23.7974 123.736 23.7974 124.408C23.7974 124.728 23.9201 124.984 24.1654 125.176C24.4214 125.357 24.7681 125.448 25.2054 125.448ZM34.1844 119.528C34.4831 119.112 34.8831 118.797 35.3844 118.584C35.8964 118.371 36.4831 118.264 37.1444 118.264V120.568C36.8671 120.547 36.6804 120.536 36.5844 120.536C35.8698 120.536 35.3098 120.739 34.9044 121.144C34.4991 121.539 34.2964 122.136 34.2964 122.936V127H31.8004V118.392H34.1844V119.528ZM43.8606 118.264C44.9272 118.264 45.7859 118.584 46.4366 119.224C47.0979 119.864 47.4286 120.813 47.4286 122.072V127H44.9326V122.456C44.9326 121.773 44.7832 121.267 44.4846 120.936C44.1859 120.595 43.7539 120.424 43.1886 120.424C42.5592 120.424 42.0579 120.621 41.6846 121.016C41.3112 121.4 41.1246 121.976 41.1246 122.744V127H38.6286V118.392H41.0126V119.4C41.3432 119.037 41.7539 118.76 42.2446 118.568C42.7352 118.365 43.2739 118.264 43.8606 118.264ZM64.5903 127L64.5743 120.28L61.2783 125.816H60.1103L56.8303 120.424V127H54.3983V115.8H56.5423L60.7343 122.76L64.8623 115.8H66.9903L67.0223 127H64.5903ZM73.5996 127.128C72.6929 127.128 71.8769 126.941 71.1516 126.568C70.4369 126.184 69.8769 125.656 69.4716 124.984C69.0662 124.312 68.8636 123.549 68.8636 122.696C68.8636 121.843 69.0662 121.08 69.4716 120.408C69.8769 119.736 70.4369 119.213 71.1516 118.84C71.8769 118.456 72.6929 118.264 73.5996 118.264C74.5062 118.264 75.3169 118.456 76.0316 118.84C76.7462 119.213 77.3062 119.736 77.7116 120.408C78.1169 121.08 78.3196 121.843 78.3196 122.696C78.3196 123.549 78.1169 124.312 77.7116 124.984C77.3062 125.656 76.7462 126.184 76.0316 126.568C75.3169 126.941 74.5062 127.128 73.5996 127.128ZM73.5996 125.08C74.2396 125.08 74.7622 124.867 75.1676 124.44C75.5836 124.003 75.7916 123.421 75.7916 122.696C75.7916 121.971 75.5836 121.395 75.1676 120.968C74.7622 120.531 74.2396 120.312 73.5996 120.312C72.9596 120.312 72.4316 120.531 72.0156 120.968C71.5996 121.395 71.3916 121.971 71.3916 122.696C71.3916 123.421 71.5996 124.003 72.0156 124.44C72.4316 124.867 72.9596 125.08 73.5996 125.08ZM82.3719 119.528C82.6706 119.112 83.0706 118.797 83.5719 118.584C84.0839 118.371 84.6706 118.264 85.3319 118.264V120.568C85.0546 120.547 84.8679 120.536 84.7719 120.536C84.0573 120.536 83.4973 120.739 83.0919 121.144C82.6866 121.539 82.4839 122.136 82.4839 122.936V127H79.9879V118.392H82.3719V119.528ZM95.1699 122.728C95.1699 122.76 95.1539 122.984 95.1219 123.4H88.6099C88.7273 123.933 89.0046 124.355 89.4419 124.664C89.8793 124.973 90.4233 125.128 91.0739 125.128C91.5219 125.128 91.9166 125.064 92.2579 124.936C92.6099 124.797 92.9353 124.584 93.2339 124.296L94.5619 125.736C93.7513 126.664 92.5673 127.128 91.0099 127.128C90.0393 127.128 89.1806 126.941 88.4339 126.568C87.6873 126.184 87.1113 125.656 86.7059 124.984C86.3006 124.312 86.0979 123.549 86.0979 122.696C86.0979 121.853 86.2953 121.096 86.6899 120.424C87.0953 119.741 87.6446 119.213 88.3379 118.84C89.0419 118.456 89.8259 118.264 90.6899 118.264C91.5326 118.264 92.2953 118.445 92.9779 118.808C93.6606 119.171 94.1939 119.693 94.5779 120.376C94.9726 121.048 95.1699 121.832 95.1699 122.728ZM90.7059 120.152C90.1406 120.152 89.6659 120.312 89.2819 120.632C88.8979 120.952 88.6633 121.389 88.5779 121.944H92.8179C92.7326 121.4 92.4979 120.968 92.1139 120.648C91.7299 120.317 91.2606 120.152 90.7059 120.152Z" fill="white"/>
<rect x="1" y="1" width="95" height="100" rx="10" stroke="white" stroke-width="2"/>
<path d="M65.7678 52.7678C66.7441 51.7915 66.7441 50.2085 65.7678 49.2322L49.8579 33.3223C48.8816 32.346 47.2986 32.346 46.3223 33.3223C45.346 34.2986 45.346 35.8816 46.3223 36.8579L60.4645 51L46.3223 65.1421C45.346 66.1184 45.346 67.7014 46.3223 68.6777C47.2986 69.654 48.8816 69.654 49.8579 68.6777L65.7678 52.7678ZM34 53.5H64V48.5H34V53.5Z" fill="white"/>
</svg>
