<svg width="57" height="69" viewBox="0 0 57 69" fill="none" xmlns="http://www.w3.org/2000/svg">
<path d="M12.4554 67.08C11.7554 67.08 11.1221 66.9267 10.5554 66.62C9.99539 66.3067 9.55539 65.88 9.23539 65.34C8.91539 64.7933 8.75539 64.18 8.75539 63.5C8.75539 62.82 8.91539 62.21 9.23539 61.67C9.55539 61.1233 9.99872 60.6967 10.5654 60.39C11.1321 60.0767 11.7654 59.92 12.4654 59.92C13.0121 59.92 13.5121 60.0133 13.9654 60.2C14.4187 60.38 14.8054 60.65 15.1254 61.01L14.4754 61.64C13.9487 61.0867 13.2921 60.81 12.5054 60.81C11.9854 60.81 11.5154 60.9267 11.0954 61.16C10.6754 61.3933 10.3454 61.7167 10.1054 62.13C9.87206 62.5367 9.75539 62.9933 9.75539 63.5C9.75539 64.0067 9.87206 64.4667 10.1054 64.88C10.3454 65.2867 10.6754 65.6067 11.0954 65.84C11.5154 66.0733 11.9854 66.19 12.5054 66.19C13.2854 66.19 13.9421 65.91 14.4754 65.35L15.1254 65.98C14.8054 66.34 14.4154 66.6133 13.9554 66.8C13.5021 66.9867 13.0021 67.08 12.4554 67.08ZM21.1859 61.7V67H20.2759V66.2C20.0826 66.4733 19.8259 66.6867 19.5059 66.84C19.1926 66.9867 18.8493 67.06 18.4759 67.06C17.7693 67.06 17.2126 66.8667 16.8059 66.48C16.3993 66.0867 16.1959 65.51 16.1959 64.75V61.7H17.1559V64.64C17.1559 65.1533 17.2793 65.5433 17.5259 65.81C17.7726 66.07 18.1259 66.2 18.5859 66.2C19.0926 66.2 19.4926 66.0467 19.7859 65.74C20.0793 65.4333 20.2259 65 20.2259 64.44V61.7H21.1859ZM23.0135 59.58H23.9735V67H23.0135V59.58ZM28.9134 66.69C28.7734 66.81 28.6001 66.9033 28.3934 66.97C28.1868 67.03 27.9734 67.06 27.7534 67.06C27.2201 67.06 26.8068 66.9167 26.5134 66.63C26.2201 66.3433 26.0734 65.9333 26.0734 65.4V62.49H25.1734V61.7H26.0734V60.54H27.0334V61.7H28.5534V62.49H27.0334V65.36C27.0334 65.6467 27.1034 65.8667 27.2434 66.02C27.3901 66.1733 27.5968 66.25 27.8634 66.25C28.1568 66.25 28.4068 66.1667 28.6134 66L28.9134 66.69ZM35.0141 61.7V67H34.1041V66.2C33.9107 66.4733 33.6541 66.6867 33.3341 66.84C33.0207 66.9867 32.6774 67.06 32.3041 67.06C31.5974 67.06 31.0407 66.8667 30.6341 66.48C30.2274 66.0867 30.0241 65.51 30.0241 64.75V61.7H30.9841V64.64C30.9841 65.1533 31.1074 65.5433 31.3541 65.81C31.6007 66.07 31.9541 66.2 32.4141 66.2C32.9207 66.2 33.3207 66.0467 33.6141 65.74C33.9074 65.4333 34.0541 65 34.0541 64.44V61.7H35.0141ZM37.7616 62.59C37.9283 62.2833 38.175 62.05 38.5016 61.89C38.8283 61.73 39.225 61.65 39.6916 61.65V62.58C39.6383 62.5733 39.565 62.57 39.4716 62.57C38.9516 62.57 38.5416 62.7267 38.2416 63.04C37.9483 63.3467 37.8016 63.7867 37.8016 64.36V67H36.8416V61.7H37.7616V62.59ZM42.7951 61.65C43.5284 61.65 44.0884 61.83 44.4751 62.19C44.8684 62.55 45.0651 63.0867 45.0651 63.8V67H44.1551V66.3C43.9951 66.5467 43.7651 66.7367 43.4651 66.87C43.1717 66.9967 42.8217 67.06 42.4151 67.06C41.8217 67.06 41.3451 66.9167 40.9851 66.63C40.6317 66.3433 40.4551 65.9667 40.4551 65.5C40.4551 65.0333 40.6251 64.66 40.9651 64.38C41.3051 64.0933 41.8451 63.95 42.5851 63.95H44.1051V63.76C44.1051 63.3467 43.9851 63.03 43.7451 62.81C43.5051 62.59 43.1517 62.48 42.6851 62.48C42.3717 62.48 42.0651 62.5333 41.7651 62.64C41.4651 62.74 41.2117 62.8767 41.0051 63.05L40.6051 62.33C40.8784 62.11 41.2051 61.9433 41.5851 61.83C41.9651 61.71 42.3684 61.65 42.7951 61.65ZM42.5751 66.32C42.9417 66.32 43.2584 66.24 43.5251 66.08C43.7917 65.9133 43.9851 65.68 44.1051 65.38V64.64H42.6251C41.8117 64.64 41.4051 64.9133 41.4051 65.46C41.4051 65.7267 41.5084 65.9367 41.7151 66.09C41.9217 66.2433 42.2084 66.32 42.5751 66.32ZM46.8416 59.58H47.8016V67H46.8416V59.58Z" fill="white"/>
<rect x="1" y="1" width="55" height="45" rx="10" stroke="white"/>
<path d="M26.56 16V17.38C25.73 17.05 24.84 16.88 23.95 16.88C22.16 16.88 20.37 17.56 19 18.93L22.33 22.26H23.44V23.37C24.3 24.23 25.42 24.68 26.55 24.73V27H23.56V30C23.56 31.1 24.46 32 25.56 32H35.56C37.22 32 38.56 30.66 38.56 29V16H26.56ZM25.45 22.41V20.26H23.17L22.13 19.22C22.7 19 23.32 18.88 23.95 18.88C25.29 18.88 26.54 19.4 27.49 20.34L28.9 21.75L28.7 21.95C28.19 22.46 27.51 22.75 26.78 22.75C26.31 22.75 25.85 22.63 25.45 22.41ZM36.56 29C36.56 29.55 36.11 30 35.56 30C35.01 30 34.56 29.55 34.56 29V27H28.56V24.41C29.13 24.18 29.66 23.84 30.12 23.38L30.32 23.18L33.15 26H34.56V24.59L28.56 18.62V18H36.56V29Z" fill="white"/>
</svg>
