<svg width="57" height="69" viewBox="0 0 57 69" fill="none" xmlns="http://www.w3.org/2000/svg">
<path d="M9.19543 66.13V67H4.11543V60H9.05543V60.87H5.11543V63.02H8.62543V63.87H5.11543V66.13H9.19543ZM12.9163 67.06C12.3763 67.06 11.893 66.9433 11.4663 66.71C11.0463 66.4767 10.7163 66.1567 10.4763 65.75C10.2363 65.3367 10.1163 64.87 10.1163 64.35C10.1163 63.83 10.2363 63.3667 10.4763 62.96C10.7163 62.5467 11.0463 62.2267 11.4663 62C11.893 61.7667 12.3763 61.65 12.9163 61.65C13.3963 61.65 13.823 61.7467 14.1963 61.94C14.5763 62.1333 14.8696 62.4133 15.0763 62.78L14.3463 63.25C14.1796 62.9967 13.973 62.8067 13.7263 62.68C13.4796 62.5533 13.2063 62.49 12.9063 62.49C12.5596 62.49 12.2463 62.5667 11.9663 62.72C11.693 62.8733 11.4763 63.0933 11.3163 63.38C11.163 63.66 11.0863 63.9833 11.0863 64.35C11.0863 64.7233 11.163 65.0533 11.3163 65.34C11.4763 65.62 11.693 65.8367 11.9663 65.99C12.2463 66.1433 12.5596 66.22 12.9063 66.22C13.2063 66.22 13.4796 66.1567 13.7263 66.03C13.973 65.9033 14.1796 65.7133 14.3463 65.46L15.0763 65.92C14.8696 66.2867 14.5763 66.57 14.1963 66.77C13.823 66.9633 13.3963 67.06 12.9163 67.06ZM18.5111 67.06C17.9844 67.06 17.5111 66.9433 17.0911 66.71C16.6711 66.4767 16.3411 66.1567 16.1011 65.75C15.8677 65.3367 15.7511 64.87 15.7511 64.35C15.7511 63.83 15.8677 63.3667 16.1011 62.96C16.3411 62.5467 16.6711 62.2267 17.0911 62C17.5111 61.7667 17.9844 61.65 18.5111 61.65C19.0377 61.65 19.5077 61.7667 19.9211 62C20.3411 62.2267 20.6677 62.5467 20.9011 62.96C21.1411 63.3667 21.2611 63.83 21.2611 64.35C21.2611 64.87 21.1411 65.3367 20.9011 65.75C20.6677 66.1567 20.3411 66.4767 19.9211 66.71C19.5077 66.9433 19.0377 67.06 18.5111 67.06ZM18.5111 66.22C18.8511 66.22 19.1544 66.1433 19.4211 65.99C19.6944 65.83 19.9077 65.61 20.0611 65.33C20.2144 65.0433 20.2911 64.7167 20.2911 64.35C20.2911 63.9833 20.2144 63.66 20.0611 63.38C19.9077 63.0933 19.6944 62.8733 19.4211 62.72C19.1544 62.5667 18.8511 62.49 18.5111 62.49C18.1711 62.49 17.8644 62.5667 17.5911 62.72C17.3244 62.8733 17.1111 63.0933 16.9511 63.38C16.7977 63.66 16.7211 63.9833 16.7211 64.35C16.7211 64.7167 16.7977 65.0433 16.9511 65.33C17.1111 65.61 17.3244 65.83 17.5911 65.99C17.8644 66.1433 18.1711 66.22 18.5111 66.22ZM25.4187 61.65C26.092 61.65 26.6254 61.8467 27.0187 62.24C27.4187 62.6267 27.6187 63.1967 27.6187 63.95V67H26.6587V64.06C26.6587 63.5467 26.5354 63.16 26.2887 62.9C26.042 62.64 25.6887 62.51 25.2287 62.51C24.7087 62.51 24.2987 62.6633 23.9987 62.97C23.6987 63.27 23.5487 63.7033 23.5487 64.27V67H22.5887V61.7H23.5087V62.5C23.702 62.2267 23.962 62.0167 24.2887 61.87C24.622 61.7233 24.9987 61.65 25.4187 61.65ZM31.6946 67.06C31.168 67.06 30.6946 66.9433 30.2746 66.71C29.8546 66.4767 29.5246 66.1567 29.2846 65.75C29.0513 65.3367 28.9346 64.87 28.9346 64.35C28.9346 63.83 29.0513 63.3667 29.2846 62.96C29.5246 62.5467 29.8546 62.2267 30.2746 62C30.6946 61.7667 31.168 61.65 31.6946 61.65C32.2213 61.65 32.6913 61.7667 33.1046 62C33.5246 62.2267 33.8513 62.5467 34.0846 62.96C34.3246 63.3667 34.4446 63.83 34.4446 64.35C34.4446 64.87 34.3246 65.3367 34.0846 65.75C33.8513 66.1567 33.5246 66.4767 33.1046 66.71C32.6913 66.9433 32.2213 67.06 31.6946 67.06ZM31.6946 66.22C32.0346 66.22 32.338 66.1433 32.6046 65.99C32.878 65.83 33.0913 65.61 33.2446 65.33C33.398 65.0433 33.4746 64.7167 33.4746 64.35C33.4746 63.9833 33.398 63.66 33.2446 63.38C33.0913 63.0933 32.878 62.8733 32.6046 62.72C32.338 62.5667 32.0346 62.49 31.6946 62.49C31.3546 62.49 31.048 62.5667 30.7746 62.72C30.508 62.8733 30.2946 63.0933 30.1346 63.38C29.9813 63.66 29.9046 63.9833 29.9046 64.35C29.9046 64.7167 29.9813 65.0433 30.1346 65.33C30.2946 65.61 30.508 65.83 30.7746 65.99C31.048 66.1433 31.3546 66.22 31.6946 66.22ZM42.4023 61.65C43.069 61.65 43.5956 61.8433 43.9823 62.23C44.3756 62.6167 44.5723 63.19 44.5723 63.95V67H43.6123V64.06C43.6123 63.5467 43.4923 63.16 43.2523 62.9C43.019 62.64 42.6823 62.51 42.2423 62.51C41.7556 62.51 41.369 62.6633 41.0823 62.97C40.7956 63.27 40.6523 63.7033 40.6523 64.27V67H39.6923V64.06C39.6923 63.5467 39.5723 63.16 39.3323 62.9C39.099 62.64 38.7623 62.51 38.3223 62.51C37.8356 62.51 37.449 62.6633 37.1623 62.97C36.8756 63.27 36.7323 63.7033 36.7323 64.27V67H35.7723V61.7H36.6923V62.49C36.8856 62.2167 37.139 62.01 37.4523 61.87C37.7656 61.7233 38.1223 61.65 38.5223 61.65C38.9356 61.65 39.3023 61.7333 39.6223 61.9C39.9423 62.0667 40.189 62.31 40.3623 62.63C40.5623 62.3233 40.839 62.0833 41.1923 61.91C41.5523 61.7367 41.9556 61.65 42.4023 61.65ZM46.3387 61.7H47.2987V67H46.3387V61.7ZM46.8187 60.68C46.632 60.68 46.4754 60.62 46.3487 60.5C46.2287 60.38 46.1687 60.2333 46.1687 60.06C46.1687 59.8867 46.2287 59.74 46.3487 59.62C46.4754 59.4933 46.632 59.43 46.8187 59.43C47.0054 59.43 47.1587 59.49 47.2787 59.61C47.4054 59.7233 47.4687 59.8667 47.4687 60.04C47.4687 60.22 47.4054 60.3733 47.2787 60.5C47.1587 60.62 47.0054 60.68 46.8187 60.68ZM51.4417 67.06C50.9017 67.06 50.4183 66.9433 49.9917 66.71C49.5717 66.4767 49.2417 66.1567 49.0017 65.75C48.7617 65.3367 48.6417 64.87 48.6417 64.35C48.6417 63.83 48.7617 63.3667 49.0017 62.96C49.2417 62.5467 49.5717 62.2267 49.9917 62C50.4183 61.7667 50.9017 61.65 51.4417 61.65C51.9217 61.65 52.3483 61.7467 52.7217 61.94C53.1017 62.1333 53.395 62.4133 53.6017 62.78L52.8717 63.25C52.705 62.9967 52.4983 62.8067 52.2517 62.68C52.005 62.5533 51.7317 62.49 51.4317 62.49C51.085 62.49 50.7717 62.5667 50.4917 62.72C50.2183 62.8733 50.0017 63.0933 49.8417 63.38C49.6883 63.66 49.6117 63.9833 49.6117 64.35C49.6117 64.7233 49.6883 65.0533 49.8417 65.34C50.0017 65.62 50.2183 65.8367 50.4917 65.99C50.7717 66.1433 51.085 66.22 51.4317 66.22C51.7317 66.22 52.005 66.1567 52.2517 66.03C52.4983 65.9033 52.705 65.7133 52.8717 65.46L53.6017 65.92C53.395 66.2867 53.1017 66.57 52.7217 66.77C52.3483 66.9633 51.9217 67.06 51.4417 67.06Z" fill="white"/>
<rect x="1" y="1" width="55" height="45" rx="10" stroke="white"/>
<path d="M23.5 23H21.5V30H23.5V23ZM29.5 23H27.5V30H29.5V23ZM38 32H19V34H38V32ZM35.5 23H33.5V30H35.5V23ZM28.5 16.26L33.71 19H23.29L28.5 16.26ZM28.5 14L19 19V21H38V19L28.5 14Z" fill="white"/>
</svg>
