<svg width="76" height="69" viewBox="0 0 76 69" fill="none" xmlns="http://www.w3.org/2000/svg">
<path d="M6.44934 66.13V67H1.36934V60H6.30934V60.87H2.36934V63.02H5.87934V63.87H2.36934V66.13H6.44934ZM10.7586 61.65C11.4319 61.65 11.9652 61.8467 12.3586 62.24C12.7586 62.6267 12.9586 63.1967 12.9586 63.95V67H11.9986V64.06C11.9986 63.5467 11.8752 63.16 11.6286 62.9C11.3819 62.64 11.0286 62.51 10.5686 62.51C10.0486 62.51 9.63855 62.6633 9.33855 62.97C9.03855 63.27 8.88855 63.7033 8.88855 64.27V67H7.92855V61.7H8.84855V62.5C9.04189 62.2267 9.30189 62.0167 9.62855 61.87C9.96189 61.7233 10.3386 61.65 10.7586 61.65ZM19.3275 61.7L17.0075 67H16.0275L13.7075 61.7H14.7075L16.5275 65.95L18.3875 61.7H19.3275ZM20.2235 61.7H21.1835V67H20.2235V61.7ZM20.7035 60.68C20.5168 60.68 20.3601 60.62 20.2335 60.5C20.1135 60.38 20.0535 60.2333 20.0535 60.06C20.0535 59.8867 20.1135 59.74 20.2335 59.62C20.3601 59.4933 20.5168 59.43 20.7035 59.43C20.8901 59.43 21.0435 59.49 21.1635 59.61C21.2901 59.7233 21.3535 59.8667 21.3535 60.04C21.3535 60.22 21.2901 60.3733 21.1635 60.5C21.0435 60.62 20.8901 60.68 20.7035 60.68ZM23.9364 62.59C24.1031 62.2833 24.3498 62.05 24.6764 61.89C25.0031 61.73 25.3998 61.65 25.8664 61.65V62.58C25.8131 62.5733 25.7398 62.57 25.6464 62.57C25.1264 62.57 24.7164 62.7267 24.4164 63.04C24.1231 63.3467 23.9764 63.7867 23.9764 64.36V67H23.0164V61.7H23.9364V62.59ZM29.2708 67.06C28.7442 67.06 28.2708 66.9433 27.8508 66.71C27.4308 66.4767 27.1008 66.1567 26.8608 65.75C26.6275 65.3367 26.5108 64.87 26.5108 64.35C26.5108 63.83 26.6275 63.3667 26.8608 62.96C27.1008 62.5467 27.4308 62.2267 27.8508 62C28.2708 61.7667 28.7442 61.65 29.2708 61.65C29.7975 61.65 30.2675 61.7667 30.6808 62C31.1008 62.2267 31.4275 62.5467 31.6608 62.96C31.9008 63.3667 32.0208 63.83 32.0208 64.35C32.0208 64.87 31.9008 65.3367 31.6608 65.75C31.4275 66.1567 31.1008 66.4767 30.6808 66.71C30.2675 66.9433 29.7975 67.06 29.2708 67.06ZM29.2708 66.22C29.6108 66.22 29.9142 66.1433 30.1808 65.99C30.4542 65.83 30.6675 65.61 30.8208 65.33C30.9742 65.0433 31.0508 64.7167 31.0508 64.35C31.0508 63.9833 30.9742 63.66 30.8208 63.38C30.6675 63.0933 30.4542 62.8733 30.1808 62.72C29.9142 62.5667 29.6108 62.49 29.2708 62.49C28.9308 62.49 28.6242 62.5667 28.3508 62.72C28.0842 62.8733 27.8708 63.0933 27.7108 63.38C27.5575 63.66 27.4808 63.9833 27.4808 64.35C27.4808 64.7167 27.5575 65.0433 27.7108 65.33C27.8708 65.61 28.0842 65.83 28.3508 65.99C28.6242 66.1433 28.9308 66.22 29.2708 66.22ZM36.1785 61.65C36.8518 61.65 37.3851 61.8467 37.7785 62.24C38.1785 62.6267 38.3785 63.1967 38.3785 63.95V67H37.4185V64.06C37.4185 63.5467 37.2951 63.16 37.0485 62.9C36.8018 62.64 36.4485 62.51 35.9885 62.51C35.4685 62.51 35.0585 62.6633 34.7585 62.97C34.4585 63.27 34.3085 63.7033 34.3085 64.27V67H33.3485V61.7H34.2685V62.5C34.4618 62.2267 34.7218 62.0167 35.0485 61.87C35.3818 61.7233 35.7585 61.65 36.1785 61.65ZM46.7851 61.65C47.4518 61.65 47.9785 61.8433 48.3651 62.23C48.7585 62.6167 48.9551 63.19 48.9551 63.95V67H47.9951V64.06C47.9951 63.5467 47.8751 63.16 47.6351 62.9C47.4018 62.64 47.0651 62.51 46.6251 62.51C46.1385 62.51 45.7518 62.6633 45.4651 62.97C45.1785 63.27 45.0351 63.7033 45.0351 64.27V67H44.0751V64.06C44.0751 63.5467 43.9551 63.16 43.7151 62.9C43.4818 62.64 43.1451 62.51 42.7051 62.51C42.2185 62.51 41.8318 62.6633 41.5451 62.97C41.2585 63.27 41.1151 63.7033 41.1151 64.27V67H40.1551V61.7H41.0751V62.49C41.2685 62.2167 41.5218 62.01 41.8351 61.87C42.1485 61.7233 42.5051 61.65 42.9051 61.65C43.3185 61.65 43.6851 61.7333 44.0051 61.9C44.3251 62.0667 44.5718 62.31 44.7451 62.63C44.9451 62.3233 45.2218 62.0833 45.5751 61.91C45.9351 61.7367 46.3385 61.65 46.7851 61.65ZM55.5408 64.38C55.5408 64.4533 55.5342 64.55 55.5208 64.67H51.2208C51.2808 65.1367 51.4842 65.5133 51.8308 65.8C52.1842 66.08 52.6208 66.22 53.1408 66.22C53.7742 66.22 54.2842 66.0067 54.6708 65.58L55.2008 66.2C54.9608 66.48 54.6608 66.6933 54.3008 66.84C53.9475 66.9867 53.5508 67.06 53.1108 67.06C52.5508 67.06 52.0542 66.9467 51.6208 66.72C51.1875 66.4867 50.8508 66.1633 50.6108 65.75C50.3775 65.3367 50.2608 64.87 50.2608 64.35C50.2608 63.8367 50.3742 63.3733 50.6008 62.96C50.8342 62.5467 51.1508 62.2267 51.5508 62C51.9575 61.7667 52.4142 61.65 52.9208 61.65C53.4275 61.65 53.8775 61.7667 54.2708 62C54.6708 62.2267 54.9808 62.5467 55.2008 62.96C55.4275 63.3733 55.5408 63.8467 55.5408 64.38ZM52.9208 62.46C52.4608 62.46 52.0742 62.6 51.7608 62.88C51.4542 63.16 51.2742 63.5267 51.2208 63.98H54.6208C54.5675 63.5333 54.3842 63.17 54.0708 62.89C53.7642 62.6033 53.3808 62.46 52.9208 62.46ZM59.7039 61.65C60.3772 61.65 60.9105 61.8467 61.3039 62.24C61.7039 62.6267 61.9039 63.1967 61.9039 63.95V67H60.9439V64.06C60.9439 63.5467 60.8205 63.16 60.5739 62.9C60.3272 62.64 59.9739 62.51 59.5139 62.51C58.9939 62.51 58.5839 62.6633 58.2839 62.97C57.9839 63.27 57.8339 63.7033 57.8339 64.27V67H56.8739V61.7H57.7939V62.5C57.9872 62.2267 58.2472 62.0167 58.5739 61.87C58.9072 61.7233 59.2839 61.65 59.7039 61.65ZM66.6605 66.69C66.5205 66.81 66.3472 66.9033 66.1405 66.97C65.9338 67.03 65.7205 67.06 65.5005 67.06C64.9672 67.06 64.5538 66.9167 64.2605 66.63C63.9672 66.3433 63.8205 65.9333 63.8205 65.4V62.49H62.9205V61.7H63.8205V60.54H64.7805V61.7H66.3005V62.49H64.7805V65.36C64.7805 65.6467 64.8505 65.8667 64.9905 66.02C65.1372 66.1733 65.3438 66.25 65.6105 66.25C65.9038 66.25 66.1538 66.1667 66.3605 66L66.6605 66.69ZM69.7511 61.65C70.4845 61.65 71.0445 61.83 71.4311 62.19C71.8245 62.55 72.0211 63.0867 72.0211 63.8V67H71.1111V66.3C70.9511 66.5467 70.7211 66.7367 70.4211 66.87C70.1278 66.9967 69.7778 67.06 69.3711 67.06C68.7778 67.06 68.3011 66.9167 67.9411 66.63C67.5878 66.3433 67.4111 65.9667 67.4111 65.5C67.4111 65.0333 67.5811 64.66 67.9211 64.38C68.2611 64.0933 68.8011 63.95 69.5411 63.95H71.0611V63.76C71.0611 63.3467 70.9411 63.03 70.7011 62.81C70.4611 62.59 70.1078 62.48 69.6411 62.48C69.3278 62.48 69.0211 62.5333 68.7211 62.64C68.4211 62.74 68.1678 62.8767 67.9611 63.05L67.5611 62.33C67.8345 62.11 68.1611 61.9433 68.5411 61.83C68.9211 61.71 69.3245 61.65 69.7511 61.65ZM69.5311 66.32C69.8978 66.32 70.2145 66.24 70.4811 66.08C70.7478 65.9133 70.9411 65.68 71.0611 65.38V64.64H69.5811C68.7678 64.64 68.3611 64.9133 68.3611 65.46C68.3611 65.7267 68.4645 65.9367 68.6711 66.09C68.8778 66.2433 69.1645 66.32 69.5311 66.32ZM73.7977 59.58H74.7577V67H73.7977V59.58Z" fill="white"/>
<rect x="11" y="1" width="55" height="45" rx="10" stroke="white"/>
<path d="M32.77 18.15L34.2 15.78L35.23 14.07C35.62 13.42 36.56 13.42 36.95 14.07L38.43 16.53L37.2 18.59L36.2 20.21L32.77 18.15ZM48.72 23.97L47.12 21.31L43.66 23.31L45.87 27H47C47.76 27 48.45 26.57 48.79 25.89C48.93 25.61 49 25.31 49 25C49 24.64 48.9 24.29 48.72 23.97ZM43 32H44.5C45.26 32 45.95 31.57 46.29 30.89L47.74 28H43V26L39 30L43 34V32ZM37 28H32.7L31.86 29.41C31.56 29.91 31.54 30.53 31.8 31.06C32.08 31.63 32.67 32 33.32 32H37V28ZM33.12 25.35L34.85 26.39L33.48 20.9L28 22.27L29.7 23.29L29.29 23.98C28.94 24.57 28.91 25.29 29.22 25.9L30.85 29.16L33.12 25.35ZM44.02 16.14L42.72 13.97C42.35 13.37 41.7 13 41 13H37.47L40.59 18.2L38.87 19.23L44.36 20.6L45.73 15.11L44.02 16.14Z" fill="white"/>
</svg>
