<svg width="58" height="69" viewBox="0 0 58 69" fill="none" xmlns="http://www.w3.org/2000/svg">
<path d="M1.37324 60H2.37324V66.13H6.16324V67H1.37324V60ZM11.8924 64.38C11.8924 64.4533 11.8857 64.55 11.8724 64.67H7.57238C7.63238 65.1367 7.83572 65.5133 8.18238 65.8C8.53572 66.08 8.97238 66.22 9.49238 66.22C10.1257 66.22 10.6357 66.0067 11.0224 65.58L11.5524 66.2C11.3124 66.48 11.0124 66.6933 10.6524 66.84C10.299 66.9867 9.90238 67.06 9.46238 67.06C8.90238 67.06 8.40572 66.9467 7.97238 66.72C7.53905 66.4867 7.20238 66.1633 6.96238 65.75C6.72905 65.3367 6.61238 64.87 6.61238 64.35C6.61238 63.8367 6.72572 63.3733 6.95238 62.96C7.18572 62.5467 7.50238 62.2267 7.90238 62C8.30905 61.7667 8.76572 61.65 9.27238 61.65C9.77905 61.65 10.229 61.7667 10.6224 62C11.0224 62.2267 11.3324 62.5467 11.5524 62.96C11.779 63.3733 11.8924 63.8467 11.8924 64.38ZM9.27238 62.46C8.81238 62.46 8.42572 62.6 8.11238 62.88C7.80572 63.16 7.62572 63.5267 7.57238 63.98H10.9724C10.919 63.5333 10.7357 63.17 10.4224 62.89C10.1157 62.6033 9.73238 62.46 9.27238 62.46ZM15.0089 61.65C15.7423 61.65 16.3023 61.83 16.6889 62.19C17.0823 62.55 17.2789 63.0867 17.2789 63.8V67H16.3689V66.3C16.2089 66.5467 15.9789 66.7367 15.6789 66.87C15.3856 66.9967 15.0356 67.06 14.6289 67.06C14.0356 67.06 13.5589 66.9167 13.1989 66.63C12.8456 66.3433 12.6689 65.9667 12.6689 65.5C12.6689 65.0333 12.8389 64.66 13.1789 64.38C13.5189 64.0933 14.0589 63.95 14.7989 63.95H16.3189V63.76C16.3189 63.3467 16.1989 63.03 15.9589 62.81C15.7189 62.59 15.3656 62.48 14.8989 62.48C14.5856 62.48 14.2789 62.5333 13.9789 62.64C13.6789 62.74 13.4256 62.8767 13.2189 63.05L12.8189 62.33C13.0923 62.11 13.4189 61.9433 13.7989 61.83C14.1789 61.71 14.5823 61.65 15.0089 61.65ZM14.7889 66.32C15.1556 66.32 15.4723 66.24 15.7389 66.08C16.0056 65.9133 16.1989 65.68 16.3189 65.38V64.64H14.8389C14.0256 64.64 13.6189 64.9133 13.6189 65.46C13.6189 65.7267 13.7223 65.9367 13.9289 66.09C14.1356 66.2433 14.4223 66.32 14.7889 66.32ZM19.9755 62.59C20.1422 62.2833 20.3888 62.05 20.7155 61.89C21.0422 61.73 21.4388 61.65 21.9055 61.65V62.58C21.8522 62.5733 21.7788 62.57 21.6855 62.57C21.1655 62.57 20.7555 62.7267 20.4555 63.04C20.1622 63.3467 20.0155 63.7867 20.0155 64.36V67H19.0555V61.7H19.9755V62.59ZM25.9187 61.65C26.592 61.65 27.1254 61.8467 27.5187 62.24C27.9187 62.6267 28.1187 63.1967 28.1187 63.95V67H27.1587V64.06C27.1587 63.5467 27.0354 63.16 26.7887 62.9C26.542 62.64 26.1887 62.51 25.7287 62.51C25.2087 62.51 24.7987 62.6633 24.4987 62.97C24.1987 63.27 24.0487 63.7033 24.0487 64.27V67H23.0887V61.7H24.0087V62.5C24.202 62.2267 24.462 62.0167 24.7887 61.87C25.122 61.7233 25.4987 61.65 25.9187 61.65ZM39.2109 67L39.2009 61.9L36.6709 66.15H36.2109L33.6809 61.93V67H32.7209V60H33.5409L36.4609 64.92L39.3409 60H40.1609L40.1709 67H39.2109ZM44.4017 67.06C43.875 67.06 43.4017 66.9433 42.9817 66.71C42.5617 66.4767 42.2317 66.1567 41.9917 65.75C41.7583 65.3367 41.6417 64.87 41.6417 64.35C41.6417 63.83 41.7583 63.3667 41.9917 62.96C42.2317 62.5467 42.5617 62.2267 42.9817 62C43.4017 61.7667 43.875 61.65 44.4017 61.65C44.9283 61.65 45.3983 61.7667 45.8117 62C46.2317 62.2267 46.5583 62.5467 46.7917 62.96C47.0317 63.3667 47.1517 63.83 47.1517 64.35C47.1517 64.87 47.0317 65.3367 46.7917 65.75C46.5583 66.1567 46.2317 66.4767 45.8117 66.71C45.3983 66.9433 44.9283 67.06 44.4017 67.06ZM44.4017 66.22C44.7417 66.22 45.045 66.1433 45.3117 65.99C45.585 65.83 45.7983 65.61 45.9517 65.33C46.105 65.0433 46.1817 64.7167 46.1817 64.35C46.1817 63.9833 46.105 63.66 45.9517 63.38C45.7983 63.0933 45.585 62.8733 45.3117 62.72C45.045 62.5667 44.7417 62.49 44.4017 62.49C44.0617 62.49 43.755 62.5667 43.4817 62.72C43.215 62.8733 43.0017 63.0933 42.8417 63.38C42.6883 63.66 42.6117 63.9833 42.6117 64.35C42.6117 64.7167 42.6883 65.0433 42.8417 65.33C43.0017 65.61 43.215 65.83 43.4817 65.99C43.755 66.1433 44.0617 66.22 44.4017 66.22ZM49.3993 62.59C49.566 62.2833 49.8127 62.05 50.1393 61.89C50.466 61.73 50.8627 61.65 51.3293 61.65V62.58C51.276 62.5733 51.2027 62.57 51.1093 62.57C50.5893 62.57 50.1793 62.7267 49.8793 63.04C49.586 63.3467 49.4393 63.7867 49.4393 64.36V67H48.4793V61.7H49.3993V62.59ZM57.2537 64.38C57.2537 64.4533 57.247 64.55 57.2337 64.67H52.9337C52.9937 65.1367 53.197 65.5133 53.5437 65.8C53.897 66.08 54.3337 66.22 54.8537 66.22C55.487 66.22 55.997 66.0067 56.3837 65.58L56.9137 66.2C56.6737 66.48 56.3737 66.6933 56.0137 66.84C55.6604 66.9867 55.2637 67.06 54.8237 67.06C54.2637 67.06 53.767 66.9467 53.3337 66.72C52.9004 66.4867 52.5637 66.1633 52.3237 65.75C52.0904 65.3367 51.9737 64.87 51.9737 64.35C51.9737 63.8367 52.087 63.3733 52.3137 62.96C52.547 62.5467 52.8637 62.2267 53.2637 62C53.6704 61.7667 54.127 61.65 54.6337 61.65C55.1404 61.65 55.5904 61.7667 55.9837 62C56.3837 62.2267 56.6937 62.5467 56.9137 62.96C57.1404 63.3733 57.2537 63.8467 57.2537 64.38ZM54.6337 62.46C54.1737 62.46 53.787 62.6 53.4737 62.88C53.167 63.16 52.987 63.5267 52.9337 63.98H56.3337C56.2804 63.5333 56.097 63.17 55.7837 62.89C55.477 62.6033 55.0937 62.46 54.6337 62.46Z" fill="white"/>
<rect x="2" y="1" width="55" height="45" rx="10" stroke="white"/>
<path d="M45.7071 24.7071C46.0976 24.3166 46.0976 23.6834 45.7071 23.2929L39.3431 16.9289C38.9526 16.5384 38.3195 16.5384 37.9289 16.9289C37.5384 17.3195 37.5384 17.9526 37.9289 18.3431L43.5858 24L37.9289 29.6569C37.5384 30.0474 37.5384 30.6805 37.9289 31.0711C38.3195 31.4616 38.9526 31.4616 39.3431 31.0711L45.7071 24.7071ZM15 25H45V23H15V25Z" fill="white"/>
</svg>
