<svg width="57" height="69" viewBox="0 0 57 69" fill="none" xmlns="http://www.w3.org/2000/svg">
<path d="M10.4552 67.08C9.92857 67.08 9.41857 67 8.92523 66.84C8.43857 66.6733 8.05523 66.46 7.77523 66.2L8.14523 65.42C8.4119 65.66 8.7519 65.8567 9.16523 66.01C9.58523 66.1567 10.0152 66.23 10.4552 66.23C11.0352 66.23 11.4686 66.1333 11.7552 65.94C12.0419 65.74 12.1852 65.4767 12.1852 65.15C12.1852 64.91 12.1052 64.7167 11.9452 64.57C11.7919 64.4167 11.5986 64.3 11.3652 64.22C11.1386 64.14 10.8152 64.05 10.3952 63.95C9.86857 63.8233 9.4419 63.6967 9.11523 63.57C8.79523 63.4433 8.51857 63.25 8.28523 62.99C8.05857 62.7233 7.94523 62.3667 7.94523 61.92C7.94523 61.5467 8.0419 61.21 8.23523 60.91C8.43523 60.61 8.73523 60.37 9.13523 60.19C9.53523 60.01 10.0319 59.92 10.6252 59.92C11.0386 59.92 11.4452 59.9733 11.8452 60.08C12.2452 60.1867 12.5886 60.34 12.8752 60.54L12.5452 61.34C12.2519 61.1533 11.9386 61.0133 11.6052 60.92C11.2719 60.82 10.9452 60.77 10.6252 60.77C10.0586 60.77 9.6319 60.8733 9.34523 61.08C9.06523 61.2867 8.92523 61.5533 8.92523 61.88C8.92523 62.12 9.00523 62.3167 9.16523 62.47C9.32523 62.6167 9.5219 62.7333 9.75523 62.82C9.99523 62.9 10.3186 62.9867 10.7252 63.08C11.2519 63.2067 11.6752 63.3333 11.9952 63.46C12.3152 63.5867 12.5886 63.78 12.8152 64.04C13.0486 64.3 13.1652 64.65 13.1652 65.09C13.1652 65.4567 13.0652 65.7933 12.8652 66.1C12.6652 66.4 12.3619 66.64 11.9552 66.82C11.5486 66.9933 11.0486 67.08 10.4552 67.08ZM19.2762 64.38C19.2762 64.4533 19.2695 64.55 19.2562 64.67H14.9562C15.0162 65.1367 15.2195 65.5133 15.5662 65.8C15.9195 66.08 16.3562 66.22 16.8762 66.22C17.5095 66.22 18.0195 66.0067 18.4062 65.58L18.9362 66.2C18.6962 66.48 18.3962 66.6933 18.0362 66.84C17.6828 66.9867 17.2862 67.06 16.8462 67.06C16.2862 67.06 15.7895 66.9467 15.3562 66.72C14.9228 66.4867 14.5862 66.1633 14.3462 65.75C14.1128 65.3367 13.9962 64.87 13.9962 64.35C13.9962 63.8367 14.1095 63.3733 14.3362 62.96C14.5695 62.5467 14.8862 62.2267 15.2862 62C15.6928 61.7667 16.1495 61.65 16.6562 61.65C17.1628 61.65 17.6128 61.7667 18.0062 62C18.4062 62.2267 18.7162 62.5467 18.9362 62.96C19.1628 63.3733 19.2762 63.8467 19.2762 64.38ZM16.6562 62.46C16.1962 62.46 15.8095 62.6 15.4962 62.88C15.1895 63.16 15.0095 63.5267 14.9562 63.98H18.3562C18.3028 63.5333 18.1195 63.17 17.8062 62.89C17.4995 62.6033 17.1162 62.46 16.6562 62.46ZM22.9192 67.06C22.3792 67.06 21.8959 66.9433 21.4692 66.71C21.0492 66.4767 20.7192 66.1567 20.4792 65.75C20.2392 65.3367 20.1192 64.87 20.1192 64.35C20.1192 63.83 20.2392 63.3667 20.4792 62.96C20.7192 62.5467 21.0492 62.2267 21.4692 62C21.8959 61.7667 22.3792 61.65 22.9192 61.65C23.3992 61.65 23.8259 61.7467 24.1992 61.94C24.5792 62.1333 24.8726 62.4133 25.0792 62.78L24.3492 63.25C24.1826 62.9967 23.9759 62.8067 23.7292 62.68C23.4826 62.5533 23.2092 62.49 22.9092 62.49C22.5626 62.49 22.2492 62.5667 21.9692 62.72C21.6959 62.8733 21.4792 63.0933 21.3192 63.38C21.1659 63.66 21.0892 63.9833 21.0892 64.35C21.0892 64.7233 21.1659 65.0533 21.3192 65.34C21.4792 65.62 21.6959 65.8367 21.9692 65.99C22.2492 66.1433 22.5626 66.22 22.9092 66.22C23.2092 66.22 23.4826 66.1567 23.7292 66.03C23.9759 65.9033 24.1826 65.7133 24.3492 65.46L25.0792 65.92C24.8726 66.2867 24.5792 66.57 24.1992 66.77C23.8259 66.9633 23.3992 67.06 22.9192 67.06ZM31.2621 61.7V67H30.3521V66.2C30.1588 66.4733 29.9021 66.6867 29.5821 66.84C29.2688 66.9867 28.9254 67.06 28.5521 67.06C27.8454 67.06 27.2888 66.8667 26.8821 66.48C26.4754 66.0867 26.2721 65.51 26.2721 64.75V61.7H27.2321V64.64C27.2321 65.1533 27.3554 65.5433 27.6021 65.81C27.8488 66.07 28.2021 66.2 28.6621 66.2C29.1688 66.2 29.5688 66.0467 29.8621 65.74C30.1554 65.4333 30.3021 65 30.3021 64.44V61.7H31.2621ZM34.0097 62.59C34.1764 62.2833 34.423 62.05 34.7497 61.89C35.0764 61.73 35.473 61.65 35.9397 61.65V62.58C35.8864 62.5733 35.813 62.57 35.7197 62.57C35.1997 62.57 34.7897 62.7267 34.4897 63.04C34.1964 63.3467 34.0497 63.7867 34.0497 64.36V67H33.0897V61.7H34.0097V62.59ZM37.1229 61.7H38.0829V67H37.1229V61.7ZM37.6029 60.68C37.4162 60.68 37.2596 60.62 37.1329 60.5C37.0129 60.38 36.9529 60.2333 36.9529 60.06C36.9529 59.8867 37.0129 59.74 37.1329 59.62C37.2596 59.4933 37.4162 59.43 37.6029 59.43C37.7896 59.43 37.9429 59.49 38.0629 59.61C38.1896 59.7233 38.2529 59.8667 38.2529 60.04C38.2529 60.22 38.1896 60.3733 38.0629 60.5C37.9429 60.62 37.7896 60.68 37.6029 60.68ZM42.8959 66.69C42.7559 66.81 42.5825 66.9033 42.3759 66.97C42.1692 67.03 41.9559 67.06 41.7359 67.06C41.2025 67.06 40.7892 66.9167 40.4959 66.63C40.2025 66.3433 40.0559 65.9333 40.0559 65.4V62.49H39.1559V61.7H40.0559V60.54H41.0159V61.7H42.5359V62.49H41.0159V65.36C41.0159 65.6467 41.0859 65.8667 41.2259 66.02C41.3725 66.1733 41.5792 66.25 41.8459 66.25C42.1392 66.25 42.3892 66.1667 42.5959 66L42.8959 66.69ZM48.6488 61.7L46.0788 67.53C45.8522 68.07 45.5855 68.45 45.2788 68.67C44.9788 68.89 44.6155 69 44.1888 69C43.9288 69 43.6755 68.9567 43.4288 68.87C43.1888 68.79 42.9888 68.67 42.8288 68.51L43.2388 67.79C43.5122 68.05 43.8288 68.18 44.1888 68.18C44.4222 68.18 44.6155 68.1167 44.7688 67.99C44.9288 67.87 45.0722 67.66 45.1988 67.36L45.3688 66.99L43.0288 61.7H44.0288L45.8788 65.94L47.7088 61.7H48.6488Z" fill="white"/>
<rect x="1" y="1" width="55" height="45" rx="10" stroke="white"/>
<path d="M31.5 24.59L32.4 28.47L29 26.42L25.6 28.47L26.5 24.6L23.5 22.01L27.46 21.67L29 18.02L30.54 21.66L34.5 22L31.5 24.59ZM29 15.19L36 18.3V23C36 27.52 33.02 31.69 29 32.93C24.98 31.69 22 27.52 22 23V18.3L29 15.19ZM29 13L20 17V23C20 28.55 23.84 33.74 29 35C34.16 33.74 38 28.55 38 23V17L29 13Z" fill="white"/>
</svg>
