<svg width="57" height="69" viewBox="0 0 57 69" fill="none" xmlns="http://www.w3.org/2000/svg">
<path d="M16.173 67.08C15.6463 67.08 15.1363 67 14.643 66.84C14.1563 66.6733 13.773 66.46 13.493 66.2L13.863 65.42C14.1297 65.66 14.4697 65.8567 14.883 66.01C15.303 66.1567 15.733 66.23 16.173 66.23C16.753 66.23 17.1863 66.1333 17.473 65.94C17.7597 65.74 17.903 65.4767 17.903 65.15C17.903 64.91 17.823 64.7167 17.663 64.57C17.5097 64.4167 17.3163 64.3 17.083 64.22C16.8563 64.14 16.533 64.05 16.113 63.95C15.5863 63.8233 15.1597 63.6967 14.833 63.57C14.513 63.4433 14.2363 63.25 14.003 62.99C13.7763 62.7233 13.663 62.3667 13.663 61.92C13.663 61.5467 13.7597 61.21 13.953 60.91C14.153 60.61 14.453 60.37 14.853 60.19C15.253 60.01 15.7497 59.92 16.343 59.92C16.7563 59.92 17.163 59.9733 17.563 60.08C17.963 60.1867 18.3063 60.34 18.593 60.54L18.263 61.34C17.9697 61.1533 17.6563 61.0133 17.323 60.92C16.9897 60.82 16.663 60.77 16.343 60.77C15.7763 60.77 15.3497 60.8733 15.063 61.08C14.783 61.2867 14.643 61.5533 14.643 61.88C14.643 62.12 14.723 62.3167 14.883 62.47C15.043 62.6167 15.2397 62.7333 15.473 62.82C15.713 62.9 16.0363 62.9867 16.443 63.08C16.9697 63.2067 17.393 63.3333 17.713 63.46C18.033 63.5867 18.3063 63.78 18.533 64.04C18.7663 64.3 18.883 64.65 18.883 65.09C18.883 65.4567 18.783 65.7933 18.583 66.1C18.383 66.4 18.0797 66.64 17.673 66.82C17.2663 66.9933 16.7663 67.08 16.173 67.08ZM22.4739 67.06C21.9473 67.06 21.4739 66.9433 21.0539 66.71C20.6339 66.4767 20.3039 66.1567 20.0639 65.75C19.8306 65.3367 19.7139 64.87 19.7139 64.35C19.7139 63.83 19.8306 63.3667 20.0639 62.96C20.3039 62.5467 20.6339 62.2267 21.0539 62C21.4739 61.7667 21.9473 61.65 22.4739 61.65C23.0006 61.65 23.4706 61.7667 23.8839 62C24.3039 62.2267 24.6306 62.5467 24.8639 62.96C25.1039 63.3667 25.2239 63.83 25.2239 64.35C25.2239 64.87 25.1039 65.3367 24.8639 65.75C24.6306 66.1567 24.3039 66.4767 23.8839 66.71C23.4706 66.9433 23.0006 67.06 22.4739 67.06ZM22.4739 66.22C22.8139 66.22 23.1173 66.1433 23.3839 65.99C23.6573 65.83 23.8706 65.61 24.0239 65.33C24.1773 65.0433 24.2539 64.7167 24.2539 64.35C24.2539 63.9833 24.1773 63.66 24.0239 63.38C23.8706 63.0933 23.6573 62.8733 23.3839 62.72C23.1173 62.5667 22.8139 62.49 22.4739 62.49C22.1339 62.49 21.8273 62.5667 21.5539 62.72C21.2873 62.8733 21.0739 63.0933 20.9139 63.38C20.7606 63.66 20.6839 63.9833 20.6839 64.35C20.6839 64.7167 20.7606 65.0433 20.9139 65.33C21.0739 65.61 21.2873 65.83 21.5539 65.99C21.8273 66.1433 22.1339 66.22 22.4739 66.22ZM28.8616 67.06C28.3216 67.06 27.8383 66.9433 27.4116 66.71C26.9916 66.4767 26.6616 66.1567 26.4216 65.75C26.1816 65.3367 26.0616 64.87 26.0616 64.35C26.0616 63.83 26.1816 63.3667 26.4216 62.96C26.6616 62.5467 26.9916 62.2267 27.4116 62C27.8383 61.7667 28.3216 61.65 28.8616 61.65C29.3416 61.65 29.7683 61.7467 30.1416 61.94C30.5216 62.1333 30.8149 62.4133 31.0216 62.78L30.2916 63.25C30.1249 62.9967 29.9183 62.8067 29.6716 62.68C29.4249 62.5533 29.1516 62.49 28.8516 62.49C28.5049 62.49 28.1916 62.5667 27.9116 62.72C27.6383 62.8733 27.4216 63.0933 27.2616 63.38C27.1083 63.66 27.0316 63.9833 27.0316 64.35C27.0316 64.7233 27.1083 65.0533 27.2616 65.34C27.4216 65.62 27.6383 65.8367 27.9116 65.99C28.1916 66.1433 28.5049 66.22 28.8516 66.22C29.1516 66.22 29.4249 66.1567 29.6716 66.03C29.9183 65.9033 30.1249 65.7133 30.2916 65.46L31.0216 65.92C30.8149 66.2867 30.5216 66.57 30.1416 66.77C29.7683 66.9633 29.3416 67.06 28.8616 67.06ZM32.2645 61.7H33.2245V67H32.2645V61.7ZM32.7445 60.68C32.5578 60.68 32.4012 60.62 32.2745 60.5C32.1545 60.38 32.0945 60.2333 32.0945 60.06C32.0945 59.8867 32.1545 59.74 32.2745 59.62C32.4012 59.4933 32.5578 59.43 32.7445 59.43C32.9312 59.43 33.0845 59.49 33.2045 59.61C33.3312 59.7233 33.3945 59.8667 33.3945 60.04C33.3945 60.22 33.3312 60.3733 33.2045 60.5C33.0845 60.62 32.9312 60.68 32.7445 60.68ZM36.9875 61.65C37.7208 61.65 38.2808 61.83 38.6675 62.19C39.0608 62.55 39.2575 63.0867 39.2575 63.8V67H38.3475V66.3C38.1875 66.5467 37.9575 66.7367 37.6575 66.87C37.3641 66.9967 37.0141 67.06 36.6075 67.06C36.0141 67.06 35.5375 66.9167 35.1775 66.63C34.8241 66.3433 34.6475 65.9667 34.6475 65.5C34.6475 65.0333 34.8175 64.66 35.1575 64.38C35.4975 64.0933 36.0375 63.95 36.7775 63.95H38.2975V63.76C38.2975 63.3467 38.1775 63.03 37.9375 62.81C37.6975 62.59 37.3441 62.48 36.8775 62.48C36.5641 62.48 36.2575 62.5333 35.9575 62.64C35.6575 62.74 35.4041 62.8767 35.1975 63.05L34.7975 62.33C35.0708 62.11 35.3975 61.9433 35.7775 61.83C36.1575 61.71 36.5608 61.65 36.9875 61.65ZM36.7675 66.32C37.1341 66.32 37.4508 66.24 37.7175 66.08C37.9841 65.9133 38.1775 65.68 38.2975 65.38V64.64H36.8175C36.0041 64.64 35.5975 64.9133 35.5975 65.46C35.5975 65.7267 35.7008 65.9367 35.9075 66.09C36.1141 66.2433 36.4008 66.32 36.7675 66.32ZM41.034 59.58H41.994V67H41.034V59.58Z" fill="white"/>
<rect x="1" y="1" width="55" height="45" rx="10" stroke="white"/>
<path d="M18.3333 25.3333C19.8 25.3333 21 24.1333 21 22.6667C21 21.2 19.8 20 18.3333 20C16.8667 20 15.6667 21.2 15.6667 22.6667C15.6667 24.1333 16.8667 25.3333 18.3333 25.3333ZM19.84 26.8C19.3467 26.72 18.8533 26.6667 18.3333 26.6667C17.0133 26.6667 15.76 26.9467 14.6267 27.44C13.64 27.8667 13 28.8267 13 29.9067V32H19V29.8533C19 28.7467 19.3067 27.7067 19.84 26.8ZM39.6667 25.3333C41.1333 25.3333 42.3333 24.1333 42.3333 22.6667C42.3333 21.2 41.1333 20 39.6667 20C38.2 20 37 21.2 37 22.6667C37 24.1333 38.2 25.3333 39.6667 25.3333ZM45 29.9067C45 28.8267 44.36 27.8667 43.3733 27.44C42.24 26.9467 40.9867 26.6667 39.6667 26.6667C39.1467 26.6667 38.6533 26.72 38.16 26.8C38.6933 27.7067 39 28.7467 39 29.8533V32H45V29.9067ZM34.6533 26.2C33.0933 25.5067 31.1733 25 29 25C26.8267 25 24.9067 25.52 23.3467 26.2C21.9067 26.84 21 28.28 21 29.8533V32H37V29.8533C37 28.28 36.0933 26.84 34.6533 26.2ZM23.76 29.3333C23.88 29.0267 23.9333 28.8133 24.9733 28.4133C26.2667 27.9067 27.6267 27.6667 29 27.6667C30.3733 27.6667 31.7333 27.9067 33.0267 28.4133C34.0533 28.8133 34.1067 29.0267 34.24 29.3333H23.76ZM29 18.6667C29.7333 18.6667 30.3333 19.2667 30.3333 20C30.3333 20.7333 29.7333 21.3333 29 21.3333C28.2667 21.3333 27.6667 20.7333 27.6667 20C27.6667 19.2667 28.2667 18.6667 29 18.6667ZM29 16C26.7867 16 25 17.7867 25 20C25 22.2133 26.7867 24 29 24C31.2133 24 33 22.2133 33 20C33 17.7867 31.2133 16 29 16Z" fill="white"/>
</svg>
