<svg width="40" height="40" viewBox="0 0 40 40" fill="none" xmlns="http://www.w3.org/2000/svg">
<path d="M19.6675 1.00019C9.35794 1.00019 1.00043 9.3577 1.00043 19.6672C1.00043 29.9767 9.35794 38.3342 19.6675 38.3342C29.977 38.3342 38.3345 29.9767 38.3345 19.6672C38.3345 9.3577 29.977 1.00019 19.6675 1.00019Z" stroke="#D9D9D9" stroke-width="2" stroke-linecap="round" stroke-linejoin="round"/>
<path d="M1.33447 1.33423L6.33447 6.33423" stroke="#D9D9D9" stroke-width="2" stroke-linecap="round" stroke-linejoin="round"/>
<path d="M17.56 12V13.38C16.73 13.05 15.84 12.88 14.95 12.88C13.16 12.88 11.37 13.56 10 14.93L13.33 18.26H14.44V19.37C15.3 20.23 16.42 20.68 17.55 20.73V23H14.56V26C14.56 27.1 15.46 28 16.56 28H26.56C28.22 28 29.56 26.66 29.56 25V12H17.56ZM16.45 18.41V16.26H14.17L13.13 15.22C13.7 15 14.32 14.88 14.95 14.88C16.29 14.88 17.54 15.4 18.49 16.34L19.9 17.75L19.7 17.95C19.19 18.46 18.51 18.75 17.78 18.75C17.31 18.75 16.85 18.63 16.45 18.41ZM27.56 25C27.56 25.55 27.11 26 26.56 26C26.01 26 25.56 25.55 25.56 25V23H19.56V20.41C20.13 20.18 20.66 19.84 21.12 19.38L21.32 19.18L24.15 22H25.56V20.59L19.56 14.62V14H27.56V25Z" fill="#737373"/>
</svg>
