<svg width="40" height="40" viewBox="0 0 40 40" fill="none" xmlns="http://www.w3.org/2000/svg">
<path d="M1.66596 19.667C1.66596 29.9765 10.0235 38.334 20.333 38.334C30.6425 38.334 39 29.9765 39 19.667C39 9.35751 30.6425 1 20.333 1C10.0235 1 1.66596 9.35751 1.66596 19.667Z" stroke="#DBF0E1" stroke-width="2" stroke-linecap="round" stroke-linejoin="round"/>
<path d="M2 38L7 33" stroke="#DBF0E1" stroke-width="2" stroke-linecap="round" stroke-linejoin="round"/>
<path d="M15.5 19H13.5V26H15.5V19ZM21.5 19H19.5V26H21.5V19ZM30 28H11V30H30V28ZM27.5 19H25.5V26H27.5V19ZM20.5 12.26L25.71 15H15.29L20.5 12.26ZM20.5 10L11 15V17H30V15L20.5 10Z" fill="#3E8E53"/>
</svg>
