<svg width="40" height="40" viewBox="0 0 40 40" fill="none" xmlns="http://www.w3.org/2000/svg">
<path d="M38.334 20.333C38.334 10.0235 29.9765 1.66596 19.667 1.66596C9.35751 1.66596 1 10.0235 1 20.333C1 30.6425 9.35751 39 19.667 39C29.9765 39 38.334 30.6425 38.334 20.333Z" stroke="#D4CCFF" stroke-width="2" stroke-linecap="round" stroke-linejoin="round"/>
<path d="M38 2L33 7" stroke="#D4CCFF" stroke-width="2" stroke-linecap="round" stroke-linejoin="round"/>
<path d="M13.77 15.15L15.2 12.78L16.23 11.07C16.62 10.42 17.56 10.42 17.95 11.07L19.43 13.53L18.2 15.59L17.2 17.21L13.77 15.15ZM29.72 20.97L28.12 18.31L24.66 20.31L26.87 24H28C28.76 24 29.45 23.57 29.79 22.89C29.93 22.61 30 22.31 30 22C30 21.64 29.9 21.29 29.72 20.97ZM24 29H25.5C26.26 29 26.95 28.57 27.29 27.89L28.74 25H24V23L20 27L24 31V29ZM18 25H13.7L12.86 26.41C12.56 26.91 12.54 27.53 12.8 28.06C13.08 28.63 13.67 29 14.32 29H18V25ZM14.12 22.35L15.85 23.39L14.48 17.9L9 19.27L10.7 20.29L10.29 20.98C9.94 21.57 9.91 22.29 10.22 22.9L11.85 26.16L14.12 22.35ZM25.02 13.14L23.72 10.97C23.35 10.37 22.7 10 22 10H18.47L21.59 15.2L19.87 16.23L25.36 17.6L26.73 12.11L25.02 13.14Z" fill="#2B00FF"/>
</svg>
