<svg width="54" height="53" viewBox="0 0 54 53" fill="none" xmlns="http://www.w3.org/2000/svg">
<path d="M13.3659 14.3341C6.73907 22.2317 7.76919 34.006 15.6667 40.6328C23.5643 47.2597 35.3386 46.2295 41.9654 38.332C48.5923 30.4344 47.5621 18.6601 39.6646 12.0333C31.767 5.40647 19.9927 6.43659 13.3659 14.3341Z" stroke="#FFCCCC" stroke-width="2" stroke-linecap="round" stroke-linejoin="round"/>
<path d="M1.83768 28.5927L8.88184 27.9764" stroke="#FFCCCC" stroke-width="2" stroke-linecap="round" stroke-linejoin="round"/>
<path d="M30.5 26.5901L31.4 30.4701L28 28.4201L24.6 30.4701L25.5 26.6001L22.5 24.0101L26.46 23.6701L28 20.0201L29.54 23.6601L33.5 24.0001L30.5 26.5901ZM28 17.1901L35 20.3001V25.0001C35 29.5201 32.02 33.6901 28 34.9301C23.98 33.6901 21 29.5201 21 25.0001V20.3001L28 17.1901ZM28 15.0001L19 19.0001V25.0001C19 30.5501 22.84 35.7401 28 37.0001C33.16 35.7401 37 30.5501 37 25.0001V19.0001L28 15.0001Z" fill="#CC0000"/>
</svg>
