<svg width="40" height="40" viewBox="0 0 40 40" fill="none" xmlns="http://www.w3.org/2000/svg">
<path d="M19.667 38.334C29.9765 38.334 38.334 29.9765 38.334 19.667C38.334 9.35751 29.9765 1 19.667 1C9.35751 1 1 9.35751 1 19.667C1 29.9765 9.35751 38.334 19.667 38.334Z" stroke="#FFEECC" stroke-width="2" stroke-linecap="round" stroke-linejoin="round"/>
<path d="M38 38L33 33" stroke="#FFEECC" stroke-width="2" stroke-linecap="round" stroke-linejoin="round"/>
<path d="M9.33333 19.3333C10.8 19.3333 12 18.1333 12 16.6667C12 15.2 10.8 14 9.33333 14C7.86667 14 6.66667 15.2 6.66667 16.6667C6.66667 18.1333 7.86667 19.3333 9.33333 19.3333ZM10.84 20.8C10.3467 20.72 9.85333 20.6667 9.33333 20.6667C8.01333 20.6667 6.76 20.9467 5.62667 21.44C4.64 21.8667 4 22.8267 4 23.9067V26H10V23.8533C10 22.7467 10.3067 21.7067 10.84 20.8ZM30.6667 19.3333C32.1333 19.3333 33.3333 18.1333 33.3333 16.6667C33.3333 15.2 32.1333 14 30.6667 14C29.2 14 28 15.2 28 16.6667C28 18.1333 29.2 19.3333 30.6667 19.3333ZM36 23.9067C36 22.8267 35.36 21.8667 34.3733 21.44C33.24 20.9467 31.9867 20.6667 30.6667 20.6667C30.1467 20.6667 29.6533 20.72 29.16 20.8C29.6933 21.7067 30 22.7467 30 23.8533V26H36V23.9067ZM25.6533 20.2C24.0933 19.5067 22.1733 19 20 19C17.8267 19 15.9067 19.52 14.3467 20.2C12.9067 20.84 12 22.28 12 23.8533V26H28V23.8533C28 22.28 27.0933 20.84 25.6533 20.2ZM14.76 23.3333C14.88 23.0267 14.9333 22.8133 15.9733 22.4133C17.2667 21.9067 18.6267 21.6667 20 21.6667C21.3733 21.6667 22.7333 21.9067 24.0267 22.4133C25.0533 22.8133 25.1067 23.0267 25.24 23.3333H14.76ZM20 12.6667C20.7333 12.6667 21.3333 13.2667 21.3333 14C21.3333 14.7333 20.7333 15.3333 20 15.3333C19.2667 15.3333 18.6667 14.7333 18.6667 14C18.6667 13.2667 19.2667 12.6667 20 12.6667ZM20 10C17.7867 10 16 11.7867 16 14C16 16.2133 17.7867 18 20 18C22.2133 18 24 16.2133 24 14C24 11.7867 22.2133 10 20 10Z" fill="#FFAA00"/>
</svg>
